<svg width="12" height="12" viewBox="0 0 12 12" fill="none" xmlns="http://www.w3.org/2000/svg">
<path fill-rule="evenodd" clip-rule="evenodd" d="M11.5138 2.13241L6.79481 2.16447C6.58216 0.956301 5.52396 0.0435002 4.25903 0.0520961C2.9941 0.0606919 1.94841 0.987789 1.7522 2.19874L0.440383 2.20766C0.206137 2.20925 0.0157831 2.40221 0.0173749 2.63645C0.0189667 2.8707 0.211926 3.06105 0.446171 3.05946L1.75798 3.05055C1.97064 4.25872 3.02883 5.17152 4.29376 5.16292C5.55869 5.15433 6.60439 4.22723 6.8006 3.01628L11.5196 2.98421C11.7539 2.98262 11.9442 2.78966 11.9426 2.55541C11.941 2.32117 11.7481 2.13081 11.5138 2.13241ZM5.98001 2.59593C5.97361 1.65469 5.20607 0.897504 4.26482 0.903901C3.32358 0.910297 2.56639 1.67784 2.57279 2.61909C2.57918 3.56033 3.34673 4.31752 4.28797 4.31112C5.22922 4.30472 5.9864 3.53718 5.98001 2.59593Z" fill="currentColor"/>
<path fill-rule="evenodd" clip-rule="evenodd" d="M5.20573 8.98979C5.41838 10.198 6.47658 11.1108 7.74151 11.1022C9.00644 11.0936 10.0521 10.1665 10.2483 8.95553L11.5602 8.94661C11.7944 8.94502 11.9848 8.75206 11.9832 8.51782C11.9816 8.28357 11.7886 8.09322 11.5544 8.09481L10.2426 8.10372C10.0299 6.89555 8.97171 5.98275 7.70678 5.99134C6.44185 5.99994 5.39615 6.92704 5.19994 8.13799L0.48091 8.17006C0.246664 8.17165 0.0563104 8.36461 0.0579022 8.59885C0.0594941 8.8331 0.252453 9.02345 0.486699 9.02186L5.20573 8.98979ZM7.71257 6.84315C8.65381 6.83675 9.42136 7.59394 9.42775 8.53518C9.43415 9.47643 8.67696 10.244 7.73572 10.2504C6.79448 10.2568 6.02693 9.49958 6.02053 8.55834C6.01414 7.61709 6.77132 6.84955 7.71257 6.84315Z" fill="currentColor"/>
</svg>
