<svg width="13" height="12" viewBox="0 0 13 12" fill="none" xmlns="http://www.w3.org/2000/svg">
<path d="M7.85072 2.60866C10.2823 2.60866 12.25 4.54118 12.25 6.92933C12.25 9.31748 10.2823 11.25 7.85072 11.25H1.85171C1.41178 11.25 1.05184 10.8965 1.05184 10.4644C1.05184 10.0324 1.41178 9.67885 1.85171 9.67885H7.85072C9.39447 9.67885 10.6503 8.44549 10.6503 6.92933C10.6503 5.41317 9.39447 4.17981 7.85072 4.17981H2.97945L4.01932 5.19324C4.33127 5.49961 4.33127 6.00232 4.01932 6.3087C3.70737 6.61507 3.19552 6.61507 2.88357 6.3087L0.483962 3.95197C0.172013 3.64559 0.172013 3.14288 0.483962 2.83651L2.88357 0.479781C3.19552 0.173406 3.70737 0.173406 4.01932 0.479781C4.33127 0.786156 4.33127 1.28886 4.01932 1.59524L2.97945 2.60866H7.85072Z" fill="currentColor" stroke="currentColor" stroke-width="0.5"/>
</svg>
