<svg width="11" height="11" viewBox="0 0 11 11" fill="none" xmlns="http://www.w3.org/2000/svg">
<path d="M10.6784 10.6784C10.2496 11.1072 9.54605 11.1072 9.11726 10.6784L5.5 7.05027L1.88274 10.6784C1.45395 11.1072 0.750381 11.1072 0.321592 10.6784C-0.107197 10.2496 -0.107197 9.54605 0.321592 9.11726L3.94986 5.5L0.321592 1.88274C-0.107197 1.45395 -0.107197 0.750381 0.321592 0.321592C0.750381 -0.107197 1.45395 -0.107197 1.88274 0.321592L5.5 3.94973L9.11726 0.321592C9.54605 -0.107197 10.2496 -0.107197 10.6784 0.321592C11.1072 0.750381 11.1072 1.45395 10.6784 1.88274L7.05014 5.5L10.6784 9.11726C11.1072 9.54605 11.1072 10.2496 10.6784 10.6784Z" fill="currentColor"/>
</svg>
