<svg width="17" height="20" viewBox="0 0 17 20" fill="none" xmlns="http://www.w3.org/2000/svg">
  <path d="M6.04971 3.75L6.04951 2.7504C6.04929 1.64567 6.94479 0.75 8.04951 0.75C9.15393 0.75 10.0493 1.64519 10.0495 2.7496L10.0497 3.75M10.0491 16.25H13.483C15.0764 16.25 15.933 14.3782 14.8915 13.1724L14.1793 12.3478C13.2983 11.3277 12.8753 9.99039 13.0095 8.64923C13.2987 5.75848 11.0287 3.25 8.12352 3.25H7.9761C5.0707 3.25 2.80042 5.75849 3.08935 8.64949C3.22337 9.99051 2.80041 11.3277 1.91957 12.3477L1.20762 13.1721C0.166162 14.3782 1.02291 16.25 2.61637 16.25H6.04912M10.0491 16.25V16.75C10.0491 17.8546 9.15368 18.75 8.04911 18.75C6.94455 18.75 6.04912 17.8546 6.04912 16.75V16.25M10.0491 16.25H6.04912" stroke="currentColor" stroke-width="1.5" stroke-linejoin="round"/>
</svg>
