<svg width="24" height="22" viewBox="0 0 24 22" fill="none" xmlns="http://www.w3.org/2000/svg">
  <path d="M19.4408 7.3512V13.8929C19.4408 14.8719 19.4408 15.3614 19.2569 15.7879C19.1964 15.9282 19.1218 16.0619 19.0342 16.1871C18.7679 16.5676 18.3514 16.8247 17.5184 17.339L14.1276 19.4324C13.2101 19.9988 12.7514 20.2821 12.2484 20.3379C12.0833 20.3563 11.9167 20.3563 11.7516 20.3379C11.2486 20.2821 10.7899 19.9988 9.87244 19.4324L6.48165 17.339C5.6486 16.8247 5.23208 16.5676 4.9658 16.1871C4.8782 16.0619 4.80357 15.9282 4.74308 15.7879C4.55921 15.3614 4.55921 14.8719 4.55921 13.8929V7.35119M22.875 5.74593L13.6449 1.64365C12.926 1.32416 12.5666 1.16442 12.188 1.13268C12.0629 1.12219 11.9371 1.12219 11.812 1.13268C11.4334 1.16442 11.074 1.32416 10.3551 1.64365L1.125 5.74593L10.285 10.0276C11.0333 10.3774 11.4074 10.5523 11.8035 10.587C11.9343 10.5985 12.0658 10.5985 12.1965 10.587C12.5926 10.5523 12.9667 10.3774 13.715 10.0276L22.875 5.74593ZM22.875 5.74593V16.0533C22.875 16.9526 22.875 17.4022 22.7165 17.8019C22.6642 17.9336 22.5996 18.0601 22.5236 18.1797C22.2929 18.5425 21.9287 18.8062 21.2004 19.3336L20.1563 20.0897" stroke="currentColor" stroke-width="2.25" stroke-linecap="round" stroke-linejoin="round"/>
</svg>
