<svg xmlns="http://www.w3.org/2000/svg" viewBox="0 0 22 21" fill="none" stroke="currentColor" stroke-width="2.1" stroke-linejoin="round">
  <path d="M7.5382 3.3459C8.59451 0.326413 12.896 0.415878 13.9523 3.43536C14.4037 4.72548 15.6285 5.61051 16.9953 5.61051H17.2703C20.3143 5.61051 21.5649 9.5173 19.0867 11.285C17.9542 12.0927 17.4949 13.5619 17.9542 14.8749C18.9726 17.786 15.7089 20.3579 13.1524 18.6328L12.6373 18.2852C11.4845 17.5073 9.97474 17.5073 8.82189 18.2852L8.32957 18.6174C5.76585 20.3475 2.49275 17.7685 3.51403 14.8491C3.96933 13.5476 3.52485 12.091 2.41341 11.2749C-0.0291912 9.48157 1.23929 5.61051 4.26956 5.61051H4.47311C5.8344 5.61051 7.04697 4.75007 7.49648 3.46514L7.5382 3.3459Z"/>
</svg>
