<svg width="23" height="22" viewBox="0 0 23 22" fill="none" xmlns="http://www.w3.org/2000/svg">
  <path d="M4.09054 5.17786C5.817 3.4514 6.68023 2.58817 7.58534 2.08129C9.86209 0.806244 12.6379 0.806244 14.9147 2.08129C15.8198 2.58817 16.683 3.4514 18.4095 5.17786C19.1654 5.93377 19.5433 6.31173 19.8549 6.72333C20.6294 7.74649 21.1284 8.95127 21.3043 10.2224C21.375 10.7338 21.375 11.2683 21.375 12.3373V17.1434C21.375 19.0074 19.864 20.5184 18 20.5184C16.136 20.5184 14.625 19.0074 14.625 17.1434V16.0184C14.625 14.1544 13.114 12.6434 11.25 12.6434C9.38604 12.6434 7.875 14.1544 7.875 16.0184V17.1434C7.875 19.0074 6.36396 20.5184 4.5 20.5184C2.63604 20.5184 1.125 19.0074 1.125 17.1434V12.3373C1.125 11.2683 1.125 10.7338 1.19573 10.2224C1.37155 8.95127 1.87058 7.74649 2.6451 6.72333C2.95667 6.31173 3.33463 5.93377 4.09054 5.17786Z" stroke="currentColor" stroke-width="2.25" stroke-linejoin="round"/>
</svg>
