<svg width="18" height="18" viewBox="0 0 18 18" fill="none" xmlns="http://www.w3.org/2000/svg">
  <path fill-rule="evenodd" clip-rule="evenodd" d="M8.03575 1.28572C4.30781 1.28572 1.28572 4.30781 1.28572 8.03575C1.28572 11.7637 4.30781 14.7858 8.03575 14.7858C9.89812 14.7858 11.5831 14.0323 12.8051 12.8122C14.0298 11.5895 14.7858 9.90133 14.7858 8.03575C14.7858 4.30781 11.7637 1.28572 8.03575 1.28572ZM0 8.03575C0 3.59744 3.59744 0 8.03575 0C12.4741 0 16.0715 3.59744 16.0715 8.03575C16.0715 10.0248 15.3483 11.846 14.1513 13.2487L17.8111 16.9021C18.0624 17.1528 18.0631 17.5604 17.8124 17.8111C17.5617 18.0624 17.1541 18.0631 16.9034 17.8124L13.2416 14.1577C11.8396 15.3509 10.0215 16.0715 8.03575 16.0715C3.59744 16.0715 0 12.4741 0 8.03575Z" fill="currentColor"/>
</svg>
