<svg xmlns="http://www.w3.org/2000/svg" viewBox="0 0 149.15 136.83">
  <path fill="#ffffff" d="M54.05,86.07c-.14-10.35,6.81-9.9,17.13-9.9,8.69,0,16.78.09,24.28,0,3.15-.07,4.32-1.07,4.35-4.64.02-2.66,0-4.86,0-8.21-.28-11.44-.25-26.69-.3-36.01-.02-4.07-6.34-2.67-9.93-2.63s-7.7,1.1-9.97,3.52c-4.54,4.48-46.12,45.49-50.2,49.53-2.41,2.68-3.72,7.14-4.29,11.22-1.52,10.89,5.22,23.34,15.64,23.72,6.29.23,18.56.32,28.61.22,3.78-.04,6.58-.06,8.13,1.47,1.03,1.01,1.59,1.23,1.7,5.37.06,2.38.12,6.36.09,9.29-.05,4.4-.48,5.19-1.89,6.31s-3.82,1.39-6.07,1.43c-2.16,0-4.27.02-6.49,0-10.96-.09-20.59.54-31.08-.82C13.74,133.36.26,112.17,0,92.26s9.57-30.42,23.49-43.53c11.83-11.77,28.49-28.29,39.13-38.87C75.2-1.79,86.82.15,105.01.09c2.72,0,4.99-.04,7.13.03,2,.07,4.04.04,6.02.94,3.14,1.43,5.58,4.77,5.47,7.93.08,5.96.05,50.34.13,64.91,0,1.4,1.25,1.98,2.62,2.03,1.81.07,5.77.01,7.33,0,2.77-.01,5.07-.02,7.2,0,1.5.01,3.87.06,4.51.26,3.92,1.24,3.73,4.58,3.74,8.64,0,2.65-.02,5.16-.06,7.21-.06,3.69-.26,4.55-1.36,5.87-1.97,2.35-4.91,1.8-8.59,1.87-3.03.05-6.91,0-9.77-.04-1.96-.03-4-.21-4.88.2-1.1.51-.74,2.7-.75,4.25-.03,3.77.03,11.46.04,15.72,0,2.16-.16,4.03-.85,6.45-1.78,6.22-7.97,10.12-14.58,10.14-2.52.03-5.72.38-7.18-1.17s-1.5-2.75-1.5-4.65c0-1.57-.03-3.48,0-5.72.05-3.95-.02-8.85,0-13.08,0-2.1-.12-5.86-.08-8.42s.02-3.45-2.93-3.48c-9-.09-22.1.08-32.27.08-7.16,0-10.07-.47-10.35-7.04l.02-6.95Z"/>
</svg>
